<svg xmlns="http://www.w3.org/2000/svg" viewBox="0 0 1000 720" fill="none">
  <rect width="1000" height="720" fill="#F8FAFC"/>
  <text x="60" y="40" font-family="Inter, sans-serif" font-size="13" font-weight="700" fill="#94A3B8" letter-spacing="2">WIREFRAME — PROJECT DASHBOARD</text>

  <!-- Header area -->
  <text x="60" y="85" font-family="Inter, sans-serif" font-size="24" font-weight="800" fill="#1E293B">Project Dashboard</text>
  <circle cx="60" cy="105" r="6" fill="#94A3B8"/>
  <text x="73" y="109" font-family="Inter, sans-serif" font-size="11" fill="#64748B">Welcome back, Jane Doe</text>

  <!-- New Project button -->
  <rect x="780" y="75" width="160" height="36" rx="8" fill="#4F46E5"/>
  <text x="800" y="97" font-family="Inter, sans-serif" font-size="12" font-weight="600" fill="#fff">+  New Permit Project</text>

  <!-- Stat cards -->
  <rect x="60" y="130" width="200" height="70" rx="10" fill="#fff" stroke="#E2E8F0" stroke-width="1"/>
  <rect x="75" y="145" width="32" height="32" rx="8" fill="#EEF2FF"/>
  <text x="117" y="150" font-family="Inter, sans-serif" font-size="9" font-weight="600" fill="#64748B" letter-spacing="1">TOTAL PROJECTS</text>
  <text x="117" y="182" font-family="Inter, sans-serif" font-size="22" font-weight="800" fill="#1E293B">3</text>

  <rect x="280" y="130" width="200" height="70" rx="10" fill="#fff" stroke="#E2E8F0" stroke-width="1"/>
  <rect x="295" y="145" width="32" height="32" rx="8" fill="#EFF6FF"/>
  <text x="337" y="150" font-family="Inter, sans-serif" font-size="9" font-weight="600" fill="#64748B" letter-spacing="1">UNDER REVIEW</text>
  <text x="337" y="182" font-family="Inter, sans-serif" font-size="22" font-weight="800" fill="#1E293B">2</text>

  <rect x="500" y="130" width="200" height="70" rx="10" fill="#fff" stroke="#E2E8F0" stroke-width="1"/>
  <rect x="515" y="145" width="32" height="32" rx="8" fill="#FFFBEB"/>
  <text x="557" y="150" font-family="Inter, sans-serif" font-size="9" font-weight="600" fill="#64748B" letter-spacing="1">ACTIONS NEEDED</text>
  <text x="557" y="182" font-family="Inter, sans-serif" font-size="22" font-weight="800" fill="#1E293B">1</text>

  <rect x="720" y="130" width="200" height="70" rx="10" fill="#fff" stroke="#E2E8F0" stroke-width="1"/>
  <rect x="735" y="145" width="32" height="32" rx="8" fill="#ECFDF5"/>
  <text x="777" y="150" font-family="Inter, sans-serif" font-size="9" font-weight="600" fill="#64748B" letter-spacing="1">FULLY APPROVED</text>
  <text x="777" y="182" font-family="Inter, sans-serif" font-size="22" font-weight="800" fill="#1E293B">1</text>

  <!-- Project List -->
  <rect x="60" y="225" width="880" height="455" rx="12" fill="#fff" stroke="#E2E8F0" stroke-width="1"/>

  <!-- Header -->
  <rect x="60" y="225" width="880" height="50" rx="12" fill="#F8FAFC" stroke="#E2E8F0" stroke-width="1"/>
  <text x="85" y="255" font-family="Inter, sans-serif" font-size="16" font-weight="700" fill="#1E293B">Active Project Cases</text>
  <rect x="830" y="242" width="85" height="20" rx="10" fill="#E2E8F0"/>
  <text x="840" y="256" font-family="Inter, sans-serif" font-size="10" font-weight="600" fill="#475569">Live Tracker</text>

  <!-- Project 1 -->
  <rect x="60" y="276" width="880" height="110" fill="#fff" stroke="#E2E8F0" stroke-width="0.5"/>
  <text x="85" y="305" font-family="Inter, sans-serif" font-size="16" font-weight="700" fill="#1E293B">New Back Deck Renovation</text>
  <rect x="275" y="292" width="50" height="18" rx="4" fill="#EEF2FF" stroke="#E0E7FF" stroke-width="1"/>
  <text x="285" y="305" font-family="Inter, sans-serif" font-size="9" font-weight="600" fill="#4338CA">Deck</text>
  <rect x="335" y="292" width="75" height="18" rx="10" fill="#EFF6FF" stroke="#BFDBFE" stroke-width="1"/>
  <text x="345" y="305" font-family="Inter, sans-serif" font-size="9" font-weight="600" fill="#1E40AF">In Progress</text>

  <!-- Location/Date info -->
  <text x="85" y="335" font-family="Inter, sans-serif" font-size="11" fill="#64748B">📍 Austin, TX 78701</text>
  <text x="240" y="335" font-family="Inter, sans-serif" font-size="11" fill="#64748B">📅 Started: 2026-06-01</text>
  <text x="400" y="335" font-family="Inter, sans-serif" font-size="11" font-weight="600" fill="#4F46E5">Milestone: 2 of 4 steps done</text>

  <!-- Progress bar -->
  <rect x="590" y="325" width="120" height="10" rx="5" fill="#F1F5F9"/>
  <rect x="590" y="325" width="60" height="10" rx="5" fill="#4F46E5"/>

  <!-- View button -->
  <rect x="770" y="315" width="140" height="32" rx="6" fill="#fff" stroke="#CBD5E1" stroke-width="1.5"/>
  <text x="795" y="336" font-family="Inter, sans-serif" font-size="11" font-weight="600" fill="#475569">👁  Checklist &amp; Uploads</text>

  <!-- Project 2 -->
  <rect x="60" y="386" width="880" height="110" fill="#fff" stroke="#E2E8F0" stroke-width="0.5"/>
  <text x="85" y="415" font-family="Inter, sans-serif" font-size="16" font-weight="700" fill="#1E293B">2-Car Detached Garage Workshop</text>
  <rect x="320" y="402" width="58" height="18" rx="4" fill="#EEF2FF" stroke="#E0E7FF" stroke-width="1"/>
  <text x="330" y="415" font-family="Inter, sans-serif" font-size="9" font-weight="600" fill="#4338CA">Garage</text>
  <rect x="388" y="402" width="95" height="18" rx="10" fill="#FFFBEB" stroke="#FDE68A" stroke-width="1"/>
  <text x="396" y="415" font-family="Inter, sans-serif" font-size="9" font-weight="600" fill="#92400E">Action Required</text>

  <text x="85" y="445" font-family="Inter, sans-serif" font-size="11" fill="#64748B">📍 Seattle, WA 98101</text>
  <text x="245" y="445" font-family="Inter, sans-serif" font-size="11" fill="#64748B">📅 Started: 2026-06-10</text>
  <text x="400" y="445" font-family="Inter, sans-serif" font-size="11" font-weight="600" fill="#4F46E5">Milestone: 1 of 5 steps done</text>

  <rect x="590" y="435" width="120" height="10" rx="5" fill="#F1F5F9"/>
  <rect x="590" y="435" width="24" height="10" rx="5" fill="#4F46E5"/>

  <rect x="770" y="425" width="140" height="32" rx="6" fill="#fff" stroke="#CBD5E1" stroke-width="1.5"/>
  <text x="795" y="446" font-family="Inter, sans-serif" font-size="11" font-weight="600" fill="#475569">👁  Checklist &amp; Uploads</text>

  <!-- Project 3 -->
  <rect x="60" y="496" width="880" height="110" fill="#fff" stroke="#E2E8F0" stroke-width="0.5"/>
  <text x="85" y="525" font-family="Inter, sans-serif" font-size="16" font-weight="700" fill="#1E293B">Inground Swimming Pool &amp; Spa</text>
  <rect x="300" y="512" width="45" height="18" rx="4" fill="#EEF2FF" stroke="#E0E7FF" stroke-width="1"/>
  <text x="308" y="525" font-family="Inter, sans-serif" font-size="9" font-weight="600" fill="#4338CA">Pool</text>
  <rect x="355" y="512" width="65" height="18" rx="10" fill="#ECFDF5" stroke="#A7F3D0" stroke-width="1"/>
  <text x="366" y="525" font-family="Inter, sans-serif" font-size="9" font-weight="600" fill="#065F46">Approved</text>

  <text x="85" y="555" font-family="Inter, sans-serif" font-size="11" fill="#64748B">📍 Orlando, FL 32801</text>
  <text x="245" y="555" font-family="Inter, sans-serif" font-size="11" fill="#64748B">📅 Started: 2026-05-15</text>
  <text x="400" y="555" font-family="Inter, sans-serif" font-size="11" font-weight="600" fill="#4F46E5">Milestone: 3 of 3 steps done</text>

  <rect x="590" y="545" width="120" height="10" rx="5" fill="#F1F5F9"/>
  <rect x="590" y="545" width="120" height="10" rx="5" fill="#10B981"/>

  <rect x="770" y="535" width="140" height="32" rx="6" fill="#fff" stroke="#CBD5E1" stroke-width="1.5"/>
  <text x="795" y="556" font-family="Inter, sans-serif" font-size="11" font-weight="600" fill="#475569">👁  Checklist &amp; Uploads</text>
</svg>