<svg xmlns="http://www.w3.org/2000/svg" viewBox="0 0 500 120" fill="none">
  <defs>
    <linearGradient id="brandGrad" x1="0" y1="0" x2="500" y2="80" gradientUnits="userSpaceOnUse">
      <stop offset="0%" stop-color="#4F46E5"/>
      <stop offset="100%" stop-color="#3730A3"/>
    </linearGradient>
  </defs>

  <!-- Icon mark -->
  <g transform="translate(0, 10)">
    <path d="M50 6 L90 26 L90 50 C90 73 74 89 50 96 C26 89 10 73 10 50 L10 26 Z"
          fill="url(#brandGrad)" stroke="#312E81" stroke-width="2"/>
    <g transform="translate(50, 47)">
      <rect x="-2" y="5" width="4" height="25" rx="2" fill="#C7D2FE" />
      <path d="M-12 5 L12 5 L14 9 L-14 9 Z" fill="#E0E7FF" stroke="#A5B4FC" stroke-width="0.8"/>
      <path d="M-12 5 L-15 0 L-12 9" fill="#E0E7FF" stroke="#A5B4FC" stroke-width="0.8"/>
      <path d="M12 5 L15 0 L12 9" fill="#E0E7FF" stroke="#A5B4FC" stroke-width="0.8"/>
    </g>
    <circle cx="70" cy="30" r="9" fill="#10B981" stroke="#FFF" stroke-width="1.5"/>
    <path d="M66 30 L69 33 L74 26" stroke="#FFF" stroke-width="1.5" stroke-linecap="round" stroke-linejoin="round" fill="none"/>
  </g>

  <!-- Wordmark: PermitPilot -->
  <text x="110" y="72" font-family="'Inter', 'Segoe UI', system-ui, sans-serif" font-size="52" font-weight="800" fill="#1E293B" letter-spacing="-0.02em">
    Permit
    <tspan fill="url(#brandGrad)">Pilot</tspan>
  </text>

  <!-- Tagline -->
  <text x="112" y="102" font-family="'Inter', 'Segoe UI', system-ui, sans-serif" font-size="13" fill="#64748B" font-weight="500" letter-spacing="0.02em">
    Permits Simplified. Projects Approved.
  </text>
</svg>