<svg xmlns="http://www.w3.org/2000/svg" viewBox="0 0 100 100" fill="none">
  <defs>
    <linearGradient id="g" x1="20" y1="10" x2="80" y2="90" gradientUnits="userSpaceOnUse">
      <stop offset="0%" stop-color="#4F46E5"/>
      <stop offset="100%" stop-color="#3730A3"/>
    </linearGradient>
  </defs>
  <path d="M50 6 L90 26 L90 50 C90 73 74 89 50 96 C26 89 10 73 10 50 L10 26 Z" fill="url(#g)" stroke="#312E81" stroke-width="2"/>
  <g transform="translate(50, 48)">
    <rect x="-3" y="6" width="6" height="28" rx="2.5" fill="#C7D2FE"/>
    <path d="M-14 6 L14 6 L17 11 L-17 11 Z" fill="#E0E7FF" stroke="#A5B4FC" stroke-width="1"/>
    <path d="M-14 6 L-18 0 L-14 11" fill="#E0E7FF" stroke="#A5B4FC" stroke-width="1"/>
    <path d="M14 6 L18 0 L14 11" fill="#E0E7FF" stroke="#A5B4FC" stroke-width="1"/>
  </g>
  <circle cx="72" cy="30" r="13" fill="#10B981" stroke="#FFF" stroke-width="2.5"/>
  <path d="M66 30 L70 35 L78 24" stroke="#FFF" stroke-width="3" stroke-linecap="round" stroke-linejoin="round" fill="none"/>
</svg>
